<mxfile host="app.diagrams.net" agent="Mozilla/5.0 (Windows NT 10.0; Win64; x64) AppleWebKit/537.36 (KHTML, like Gecko) Chrome/133.0.0.0 Safari/537.36" version="26.0.14">
  <diagram name="Page-1" id="WUP5zT0RCIquhupTaSED">
    <mxGraphModel dx="880" dy="426" grid="1" gridSize="10" guides="1" tooltips="1" connect="1" arrows="1" fold="1" page="1" pageScale="1" pageWidth="850" pageHeight="1100" math="0" shadow="0">
      <root>
        <mxCell id="0" />
        <mxCell id="1" parent="0" />
        <mxCell id="DXs6LCgzcOXIcyk6Eb1--1" value="CLIENTES&lt;div&gt;&lt;br&gt;&lt;/div&gt;" style="rounded=0;whiteSpace=wrap;html=1;" parent="1" vertex="1">
          <mxGeometry x="110" y="130" width="120" height="60" as="geometry" />
        </mxCell>
        <mxCell id="DXs6LCgzcOXIcyk6Eb1--2" value="&lt;u&gt;ID&lt;/u&gt;" style="ellipse;whiteSpace=wrap;html=1;" parent="1" vertex="1">
          <mxGeometry x="30" y="21" width="100" height="60" as="geometry" />
        </mxCell>
        <mxCell id="DXs6LCgzcOXIcyk6Eb1--3" value="CLIENTE" style="ellipse;whiteSpace=wrap;html=1;" parent="1" vertex="1">
          <mxGeometry x="180" y="20" width="100" height="60" as="geometry" />
        </mxCell>
        <mxCell id="DXs6LCgzcOXIcyk6Eb1--7" style="edgeStyle=none;rounded=0;orthogonalLoop=1;jettySize=auto;html=1;exitX=0.5;exitY=0;exitDx=0;exitDy=0;endArrow=baseDash;startFill=0;endFill=0;" parent="1" edge="1">
          <mxGeometry relative="1" as="geometry">
            <mxPoint x="170" y="131" as="sourcePoint" />
            <mxPoint x="170" y="131" as="targetPoint" />
          </mxGeometry>
        </mxCell>
        <mxCell id="DXs6LCgzcOXIcyk6Eb1--8" value="" style="endArrow=none;html=1;rounded=0;entryX=0.5;entryY=1;entryDx=0;entryDy=0;" parent="1" source="DXs6LCgzcOXIcyk6Eb1--1" target="DXs6LCgzcOXIcyk6Eb1--3" edge="1">
          <mxGeometry width="50" height="50" relative="1" as="geometry">
            <mxPoint x="390" y="250" as="sourcePoint" />
            <mxPoint x="440" y="200" as="targetPoint" />
          </mxGeometry>
        </mxCell>
        <mxCell id="DXs6LCgzcOXIcyk6Eb1--9" value="" style="endArrow=none;html=1;rounded=0;exitX=0.73;exitY=0.917;exitDx=0;exitDy=0;exitPerimeter=0;" parent="1" source="DXs6LCgzcOXIcyk6Eb1--2" target="DXs6LCgzcOXIcyk6Eb1--1" edge="1">
          <mxGeometry width="50" height="50" relative="1" as="geometry">
            <mxPoint x="390" y="250" as="sourcePoint" />
            <mxPoint x="440" y="200" as="targetPoint" />
          </mxGeometry>
        </mxCell>
        <mxCell id="DXs6LCgzcOXIcyk6Eb1--10" value="SERVICIOS" style="rounded=0;whiteSpace=wrap;html=1;" parent="1" vertex="1">
          <mxGeometry x="437" y="135" width="120" height="60" as="geometry" />
        </mxCell>
        <mxCell id="DXs6LCgzcOXIcyk6Eb1--11" style="edgeStyle=none;rounded=0;orthogonalLoop=1;jettySize=auto;html=1;exitX=0.5;exitY=0;exitDx=0;exitDy=0;endArrow=baseDash;startFill=0;endFill=0;" parent="1" edge="1">
          <mxGeometry relative="1" as="geometry">
            <mxPoint x="497" y="136" as="sourcePoint" />
            <mxPoint x="497" y="136" as="targetPoint" />
          </mxGeometry>
        </mxCell>
        <mxCell id="DXs6LCgzcOXIcyk6Eb1--12" value="" style="endArrow=none;html=1;rounded=0;entryX=0.391;entryY=1.007;entryDx=0;entryDy=0;entryPerimeter=0;" parent="1" source="DXs6LCgzcOXIcyk6Eb1--10" target="DXs6LCgzcOXIcyk6Eb1--16" edge="1">
          <mxGeometry width="50" height="50" relative="1" as="geometry">
            <mxPoint x="717" y="255" as="sourcePoint" />
            <mxPoint x="557" y="85" as="targetPoint" />
          </mxGeometry>
        </mxCell>
        <mxCell id="DXs6LCgzcOXIcyk6Eb1--13" value="" style="endArrow=none;html=1;rounded=0;exitX=0.629;exitY=0.992;exitDx=0;exitDy=0;exitPerimeter=0;" parent="1" source="DXs6LCgzcOXIcyk6Eb1--15" target="DXs6LCgzcOXIcyk6Eb1--10" edge="1">
          <mxGeometry width="50" height="50" relative="1" as="geometry">
            <mxPoint x="480" y="90" as="sourcePoint" />
            <mxPoint x="767" y="205" as="targetPoint" />
          </mxGeometry>
        </mxCell>
        <mxCell id="DXs6LCgzcOXIcyk6Eb1--15" value="&lt;u&gt;ID&lt;/u&gt;" style="ellipse;whiteSpace=wrap;html=1;" parent="1" vertex="1">
          <mxGeometry x="370" y="17.5" width="97" height="65" as="geometry" />
        </mxCell>
        <mxCell id="DXs6LCgzcOXIcyk6Eb1--16" value="SERVICIOS" style="ellipse;whiteSpace=wrap;html=1;" parent="1" vertex="1">
          <mxGeometry x="510" y="14.5" width="110" height="68" as="geometry" />
        </mxCell>
        <mxCell id="DXs6LCgzcOXIcyk6Eb1--17" value="RESERVAS" style="rounded=0;whiteSpace=wrap;html=1;" parent="1" vertex="1">
          <mxGeometry x="150" y="370" width="120" height="60" as="geometry" />
        </mxCell>
        <mxCell id="DXs6LCgzcOXIcyk6Eb1--18" value="&lt;u&gt;ID&lt;/u&gt;" style="ellipse;whiteSpace=wrap;html=1;" parent="1" vertex="1">
          <mxGeometry y="375" width="100" height="50" as="geometry" />
        </mxCell>
        <mxCell id="DXs6LCgzcOXIcyk6Eb1--20" value="FECHA DE INGRESO" style="ellipse;whiteSpace=wrap;html=1;" parent="1" vertex="1">
          <mxGeometry x="10" y="460" width="110" height="70" as="geometry" />
        </mxCell>
        <mxCell id="DXs6LCgzcOXIcyk6Eb1--21" value="FECHA DE EGRESO" style="ellipse;whiteSpace=wrap;html=1;" parent="1" vertex="1">
          <mxGeometry x="150" y="480" width="110" height="70" as="geometry" />
        </mxCell>
        <mxCell id="DXs6LCgzcOXIcyk6Eb1--22" value="HABITACION&lt;span style=&quot;color: rgba(0, 0, 0, 0); font-family: monospace; font-size: 0px; text-align: start; text-wrap-mode: nowrap;&quot;&gt;%3CmxGraphModel%3E%3Croot%3E%3CmxCell%20id%3D%220%22%2F%3E%3CmxCell%20id%3D%221%22%20parent%3D%220%22%2F%3E%3CmxCell%20id%3D%222%22%20value%3D%22FECHA%20DE%20INGRESO%22%20style%3D%22ellipse%3BwhiteSpace%3Dwrap%3Bhtml%3D1%3B%22%20vertex%3D%221%22%20parent%3D%221%22%3E%3CmxGeometry%20x%3D%2210%22%20y%3D%22460%22%20width%3D%22110%22%20height%3D%2270%22%20as%3D%22geometry%22%2F%3E%3C%2FmxCell%3E%3C%2Froot%3E%3C%2FmxGraphModel%3E&lt;/span&gt;" style="ellipse;whiteSpace=wrap;html=1;" parent="1" vertex="1">
          <mxGeometry x="280" y="470" width="120" height="80" as="geometry" />
        </mxCell>
        <mxCell id="DXs6LCgzcOXIcyk6Eb1--23" value="TIPO DE RESERVA" style="ellipse;whiteSpace=wrap;html=1;" parent="1" vertex="1">
          <mxGeometry x="710" y="460" width="120" height="80" as="geometry" />
        </mxCell>
        <mxCell id="DXs6LCgzcOXIcyk6Eb1--25" value="" style="endArrow=none;html=1;rounded=0;entryX=0.7;entryY=1.017;entryDx=0;entryDy=0;entryPerimeter=0;exitX=0.5;exitY=0;exitDx=0;exitDy=0;" parent="1" source="DXs6LCgzcOXIcyk6Eb1--22" target="DXs6LCgzcOXIcyk6Eb1--17" edge="1">
          <mxGeometry width="50" height="50" relative="1" as="geometry">
            <mxPoint x="230" y="550" as="sourcePoint" />
            <mxPoint x="280" y="500" as="targetPoint" />
          </mxGeometry>
        </mxCell>
        <mxCell id="DXs6LCgzcOXIcyk6Eb1--26" value="" style="endArrow=none;html=1;rounded=0;entryX=0.45;entryY=0.95;entryDx=0;entryDy=0;entryPerimeter=0;" parent="1" source="DXs6LCgzcOXIcyk6Eb1--21" target="DXs6LCgzcOXIcyk6Eb1--17" edge="1">
          <mxGeometry width="50" height="50" relative="1" as="geometry">
            <mxPoint x="390" y="360" as="sourcePoint" />
            <mxPoint x="210" y="490" as="targetPoint" />
            <Array as="points" />
          </mxGeometry>
        </mxCell>
        <mxCell id="DXs6LCgzcOXIcyk6Eb1--27" value="" style="endArrow=none;html=1;rounded=0;entryX=0;entryY=1;entryDx=0;entryDy=0;exitX=1;exitY=0;exitDx=0;exitDy=0;" parent="1" source="DXs6LCgzcOXIcyk6Eb1--20" target="DXs6LCgzcOXIcyk6Eb1--17" edge="1">
          <mxGeometry width="50" height="50" relative="1" as="geometry">
            <mxPoint x="390" y="360" as="sourcePoint" />
            <mxPoint x="440" y="310" as="targetPoint" />
          </mxGeometry>
        </mxCell>
        <mxCell id="DXs6LCgzcOXIcyk6Eb1--28" value="" style="endArrow=none;html=1;rounded=0;entryX=1;entryY=0.5;entryDx=0;entryDy=0;exitX=0;exitY=0.5;exitDx=0;exitDy=0;" parent="1" source="DXs6LCgzcOXIcyk6Eb1--17" target="DXs6LCgzcOXIcyk6Eb1--18" edge="1">
          <mxGeometry width="50" height="50" relative="1" as="geometry">
            <mxPoint x="390" y="360" as="sourcePoint" />
            <mxPoint x="440" y="310" as="targetPoint" />
          </mxGeometry>
        </mxCell>
        <mxCell id="DXs6LCgzcOXIcyk6Eb1--30" value="RELACION CLIENTE RESERVAS" style="rhombus;whiteSpace=wrap;html=1;" parent="1" vertex="1">
          <mxGeometry x="115" y="230" width="110" height="100" as="geometry" />
        </mxCell>
        <mxCell id="DXs6LCgzcOXIcyk6Eb1--31" value="" style="endArrow=none;html=1;rounded=0;entryX=0.5;entryY=1;entryDx=0;entryDy=0;exitX=0.5;exitY=0;exitDx=0;exitDy=0;" parent="1" source="DXs6LCgzcOXIcyk6Eb1--30" target="DXs6LCgzcOXIcyk6Eb1--1" edge="1">
          <mxGeometry width="50" height="50" relative="1" as="geometry">
            <mxPoint x="310" y="360" as="sourcePoint" />
            <mxPoint x="360" y="310" as="targetPoint" />
          </mxGeometry>
        </mxCell>
        <mxCell id="DXs6LCgzcOXIcyk6Eb1--32" value="" style="endArrow=none;html=1;rounded=0;exitX=0.192;exitY=-0.017;exitDx=0;exitDy=0;entryX=0.5;entryY=1;entryDx=0;entryDy=0;exitPerimeter=0;" parent="1" source="DXs6LCgzcOXIcyk6Eb1--17" target="DXs6LCgzcOXIcyk6Eb1--30" edge="1">
          <mxGeometry width="50" height="50" relative="1" as="geometry">
            <mxPoint x="310" y="360" as="sourcePoint" />
            <mxPoint x="360" y="310" as="targetPoint" />
          </mxGeometry>
        </mxCell>
        <mxCell id="DXs6LCgzcOXIcyk6Eb1--33" style="edgeStyle=none;shape=link;rounded=0;orthogonalLoop=1;jettySize=auto;html=1;exitX=0;exitY=1;exitDx=0;exitDy=0;" parent="1" source="DXs6LCgzcOXIcyk6Eb1--30" target="DXs6LCgzcOXIcyk6Eb1--30" edge="1">
          <mxGeometry relative="1" as="geometry" />
        </mxCell>
        <mxCell id="DXs6LCgzcOXIcyk6Eb1--34" value="1" style="text;html=1;align=center;verticalAlign=middle;whiteSpace=wrap;rounded=0;" parent="1" vertex="1">
          <mxGeometry x="160" y="195" width="60" height="30" as="geometry" />
        </mxCell>
        <mxCell id="DXs6LCgzcOXIcyk6Eb1--35" value="M" style="text;html=1;align=center;verticalAlign=middle;whiteSpace=wrap;rounded=0;" parent="1" vertex="1">
          <mxGeometry x="160" y="330" width="60" height="30" as="geometry" />
        </mxCell>
        <mxCell id="DXs6LCgzcOXIcyk6Eb1--36" value="RESERVAS&lt;div&gt;SERVICIOS&lt;/div&gt;" style="rhombus;whiteSpace=wrap;html=1;" parent="1" vertex="1">
          <mxGeometry x="425" y="235" width="110" height="90" as="geometry" />
        </mxCell>
        <mxCell id="DXs6LCgzcOXIcyk6Eb1--37" value="" style="endArrow=none;html=1;rounded=0;edgeStyle=orthogonalEdgeStyle;entryX=0.5;entryY=1;entryDx=0;entryDy=0;" parent="1" target="DXs6LCgzcOXIcyk6Eb1--36" edge="1">
          <mxGeometry width="50" height="50" relative="1" as="geometry">
            <mxPoint x="225" y="369" as="sourcePoint" />
            <mxPoint x="310" y="299" as="targetPoint" />
            <Array as="points">
              <mxPoint x="225" y="370" />
              <mxPoint x="320" y="370" />
              <mxPoint x="320" y="325" />
            </Array>
          </mxGeometry>
        </mxCell>
        <mxCell id="DXs6LCgzcOXIcyk6Eb1--39" value="M" style="text;html=1;align=center;verticalAlign=middle;whiteSpace=wrap;rounded=0;" parent="1" vertex="1">
          <mxGeometry x="420" y="200" width="60" height="30" as="geometry" />
        </mxCell>
        <mxCell id="DXs6LCgzcOXIcyk6Eb1--40" value="N" style="text;html=1;align=center;verticalAlign=middle;resizable=0;points=[];autosize=1;strokeColor=none;fillColor=none;rotation=-4;" parent="1" vertex="1">
          <mxGeometry x="290" y="345" width="30" height="30" as="geometry" />
        </mxCell>
        <mxCell id="DXs6LCgzcOXIcyk6Eb1--41" value="" style="endArrow=none;html=1;rounded=0;edgeStyle=orthogonalEdgeStyle;entryX=0.358;entryY=1;entryDx=0;entryDy=0;exitX=0.5;exitY=0;exitDx=0;exitDy=0;entryPerimeter=0;" parent="1" source="DXs6LCgzcOXIcyk6Eb1--36" target="DXs6LCgzcOXIcyk6Eb1--10" edge="1">
          <mxGeometry width="50" height="50" relative="1" as="geometry">
            <mxPoint x="310" y="360" as="sourcePoint" />
            <mxPoint x="360" y="310" as="targetPoint" />
          </mxGeometry>
        </mxCell>
        <mxCell id="LRSx59eor6NSmyUwWi5b-2" value="TIPO DE RESERVA" style="rounded=0;whiteSpace=wrap;html=1;" vertex="1" parent="1">
          <mxGeometry x="690" y="370" width="120" height="60" as="geometry" />
        </mxCell>
        <mxCell id="LRSx59eor6NSmyUwWi5b-4" value="" style="endArrow=none;html=1;rounded=0;exitX=0.5;exitY=0;exitDx=0;exitDy=0;" edge="1" parent="1" source="DXs6LCgzcOXIcyk6Eb1--23" target="LRSx59eor6NSmyUwWi5b-2">
          <mxGeometry relative="1" as="geometry">
            <mxPoint x="460" y="410" as="sourcePoint" />
            <mxPoint x="620" y="410" as="targetPoint" />
          </mxGeometry>
        </mxCell>
        <mxCell id="LRSx59eor6NSmyUwWi5b-5" value="&lt;u&gt;ID&lt;/u&gt;" style="ellipse;whiteSpace=wrap;html=1;" vertex="1" parent="1">
          <mxGeometry x="570" y="485" width="100" height="50" as="geometry" />
        </mxCell>
        <mxCell id="LRSx59eor6NSmyUwWi5b-6" value="" style="endArrow=none;html=1;rounded=0;exitX=1;exitY=0.5;exitDx=0;exitDy=0;entryX=0;entryY=0.5;entryDx=0;entryDy=0;" edge="1" parent="1" source="LRSx59eor6NSmyUwWi5b-5" target="LRSx59eor6NSmyUwWi5b-2">
          <mxGeometry relative="1" as="geometry">
            <mxPoint x="550" y="420" as="sourcePoint" />
            <mxPoint x="630" y="405" as="targetPoint" />
          </mxGeometry>
        </mxCell>
        <mxCell id="LRSx59eor6NSmyUwWi5b-7" value="RESERVA, TIPO DE RESERVA" style="rhombus;whiteSpace=wrap;html=1;" vertex="1" parent="1">
          <mxGeometry x="385" y="340" width="150" height="120" as="geometry" />
        </mxCell>
        <mxCell id="LRSx59eor6NSmyUwWi5b-8" style="edgeStyle=none;shape=link;rounded=0;orthogonalLoop=1;jettySize=auto;html=1;exitX=0;exitY=1;exitDx=0;exitDy=0;" edge="1" parent="1" source="LRSx59eor6NSmyUwWi5b-7" target="LRSx59eor6NSmyUwWi5b-7">
          <mxGeometry relative="1" as="geometry" />
        </mxCell>
        <mxCell id="LRSx59eor6NSmyUwWi5b-9" value="M" style="text;html=1;align=center;verticalAlign=middle;whiteSpace=wrap;rounded=0;" vertex="1" parent="1">
          <mxGeometry x="260" y="395" width="60" height="30" as="geometry" />
        </mxCell>
        <mxCell id="LRSx59eor6NSmyUwWi5b-10" value="" style="endArrow=none;html=1;rounded=0;exitX=1;exitY=0.5;exitDx=0;exitDy=0;entryX=0.025;entryY=0.4;entryDx=0;entryDy=0;entryPerimeter=0;" edge="1" parent="1" source="LRSx59eor6NSmyUwWi5b-7" target="LRSx59eor6NSmyUwWi5b-2">
          <mxGeometry relative="1" as="geometry">
            <mxPoint x="340" y="340" as="sourcePoint" />
            <mxPoint x="500" y="340" as="targetPoint" />
          </mxGeometry>
        </mxCell>
        <mxCell id="LRSx59eor6NSmyUwWi5b-13" value="" style="endArrow=none;html=1;rounded=0;exitX=1;exitY=0.5;exitDx=0;exitDy=0;" edge="1" parent="1" source="DXs6LCgzcOXIcyk6Eb1--17">
          <mxGeometry relative="1" as="geometry">
            <mxPoint x="265" y="389.5" as="sourcePoint" />
            <mxPoint x="380" y="400" as="targetPoint" />
          </mxGeometry>
        </mxCell>
        <mxCell id="LRSx59eor6NSmyUwWi5b-14" value="1" style="text;html=1;align=center;verticalAlign=middle;whiteSpace=wrap;rounded=0;" vertex="1" parent="1">
          <mxGeometry x="630" y="360" width="60" height="30" as="geometry" />
        </mxCell>
      </root>
    </mxGraphModel>
  </diagram>
</mxfile>
